<svg id="es9efidAtQl1" xmlns="http://www.w3.org/2000/svg" xmlns:xlink="http://www.w3.org/1999/xlink" viewBox="0 0 64 64" shape-rendering="geometricPrecision" text-rendering="geometricPrecision"><ellipse rx="22.481888" ry="21.510928" transform="matrix(1.423368 0 0 1.487616 31.98303 32)" stroke-width="0"/><rect width="8.990714" height="8.99068" rx="0" ry="0" transform="matrix(5.038532 0 0 5.038551 9.35 9.33303)" fill="#fff" stroke-width="0"/><rect width="5.13323" height="5.13323" rx="0" ry="0" transform="matrix(4.408027 4.408027-4.408027 4.408027 32 9.333031)" stroke-width="0"/><rect width="5.987143" height="5.987143" rx="0" ry="0" transform="matrix(3.779766 0 0 3.779766 20.68614 20.64644)" fill="#fff" stroke-width="0"/><rect width="2.84282" height="2.84282" rx="0" ry="0" transform="matrix(3.980755 3.980755-3.980755 3.980755 32 20.683429)" stroke-width="0"/><rect width="4.140554" height="4.140554" rx="0" ry="0" transform="matrix(2.732554 0 0 2.732553 26.343996 26.342858)" fill="#fff" stroke-width="0"/><rect width="2.882372" height="2.882372" rx="0" ry="0" transform="matrix(1.962569 1.962569-1.962569 1.962569 32.00114 26.327587)" stroke-width="0"/><rect width="1.617516" height="1.617516" rx="0" ry="0" transform="matrix(3.497247 0 0 3.497251 29.172714 29.17157)" fill="#fff" stroke-width="0"/><rect width="1.050795" height="1.050795" rx="0" ry="0" transform="matrix(2.691702 2.691702-2.691702 2.691702 32.00114 29.164231)" stroke-width="0"/></svg>